<svg width="1617" height="264" viewBox="0 0 1617 264" fill="none" xmlns="http://www.w3.org/2000/svg">
<rect y="1" width="1617" height="258" rx="10" fill="url(#paint0_linear_565_1970)"/>
<path d="M1085 259.5C1085 138.826 1182.83 41 1303.5 41C1424.17 41 1522 138.826 1522 259.5C1522 259.5 1424.17 259.5 1303.5 259.5C1182.83 259.5 1085 259.5 1085 259.5Z" fill="black" fill-opacity="0.1"/>
<g filter="url(#filter0_d_565_1970)">
<g filter="url(#filter1_d_565_1970)">
<path d="M1157 259.5C1157 179.143 1222.14 114 1302.5 114C1382.86 114 1448 179.143 1448 259.5C1448 259.5 1382.86 259.5 1302.5 259.5C1222.14 259.5 1157 259.5 1157 259.5Z" fill="#166535"/>
</g>
</g>
<g filter="url(#filter2_d_565_1970)">
<path d="M475 3.26493e-05C475 80.3575 409.857 145.5 329.5 145.5C249.143 145.5 184 80.3575 184 3.26493e-05C184 3.26493e-05 249.143 0 329.5 0C409.857 0 475 3.26493e-05 475 3.26493e-05Z" fill="#166535" fill-opacity="0.1" shape-rendering="crispEdges"/>
</g>
<path d="M548 7.95477e-05C548 120.674 450.174 218.5 329.5 218.5C208.826 218.5 111 120.674 111 7.95477e-05C111 7.95477e-05 208.826 3.05176e-05 329.5 3.05176e-05C450.174 3.05176e-05 548 7.95477e-05 548 7.95477e-05Z" fill="black" fill-opacity="0.05"/>
<defs>
<filter id="filter0_d_565_1970" x="1153" y="106" width="299" height="153.5" filterUnits="userSpaceOnUse" color-interpolation-filters="sRGB">
<feFlood flood-opacity="0" result="BackgroundImageFix"/>
<feColorMatrix in="SourceAlpha" type="matrix" values="0 0 0 0 0 0 0 0 0 0 0 0 0 0 0 0 0 0 127 0" result="hardAlpha"/>
<feOffset dy="-4"/>
<feGaussianBlur stdDeviation="2"/>
<feComposite in2="hardAlpha" operator="out"/>
<feColorMatrix type="matrix" values="0 0 0 0 0 0 0 0 0 0 0 0 0 0 0 0 0 0 0.25 0"/>
<feBlend mode="normal" in2="BackgroundImageFix" result="effect1_dropShadow_565_1970"/>
<feBlend mode="normal" in="SourceGraphic" in2="effect1_dropShadow_565_1970" result="shape"/>
</filter>
<filter id="filter1_d_565_1970" x="1157" y="110" width="299" height="153.5" filterUnits="userSpaceOnUse" color-interpolation-filters="sRGB">
<feFlood flood-opacity="0" result="BackgroundImageFix"/>
<feColorMatrix in="SourceAlpha" type="matrix" values="0 0 0 0 0 0 0 0 0 0 0 0 0 0 0 0 0 0 127 0" result="hardAlpha"/>
<feOffset dx="4"/>
<feGaussianBlur stdDeviation="2"/>
<feComposite in2="hardAlpha" operator="out"/>
<feColorMatrix type="matrix" values="0 0 0 0 0 0 0 0 0 0 0 0 0 0 0 0 0 0 0.25 0"/>
<feBlend mode="normal" in2="BackgroundImageFix" result="effect1_dropShadow_565_1970"/>
<feBlend mode="normal" in="SourceGraphic" in2="effect1_dropShadow_565_1970" result="shape"/>
</filter>
<filter id="filter2_d_565_1970" x="180" y="0" width="299" height="153.5" filterUnits="userSpaceOnUse" color-interpolation-filters="sRGB">
<feFlood flood-opacity="0" result="BackgroundImageFix"/>
<feColorMatrix in="SourceAlpha" type="matrix" values="0 0 0 0 0 0 0 0 0 0 0 0 0 0 0 0 0 0 127 0" result="hardAlpha"/>
<feOffset dy="4"/>
<feGaussianBlur stdDeviation="2"/>
<feComposite in2="hardAlpha" operator="out"/>
<feColorMatrix type="matrix" values="0 0 0 0 0 0 0 0 0 0 0 0 0 0 0 0 0 0 0.25 0"/>
<feBlend mode="normal" in2="BackgroundImageFix" result="effect1_dropShadow_565_1970"/>
<feBlend mode="normal" in="SourceGraphic" in2="effect1_dropShadow_565_1970" result="shape"/>
</filter>
<linearGradient id="paint0_linear_565_1970" x1="-122.983" y1="-104.545" x2="2291.15" y2="842.305" gradientUnits="userSpaceOnUse">
<stop stop-color="#5EA770"/>
<stop offset="1" stop-color="#25412C"/>
</linearGradient>
</defs>
</svg>
